<svg width="300" height="300" version="1.1" viewBox="0 0 79.375 79.375" xmlns="http://www.w3.org/2000/svg">
 <g fill="none" stroke="#000" stroke-linecap="round">
  <path d="m64.502 69.425v-42.888h-0.05615c-0.86376-13-11.691-23.104-24.759-23.105-13.066 0.0034765-23.891 10.107-24.754 23.105h-0.06064v42.888" stroke-linejoin="round" stroke-width="2.6458"/>
  <path d="m22.605 24.902h9.9951" stroke-width="4.2333"/>
  <path d="m45.139 24.902h9.9951" stroke-width="4.2333"/>
  <path d="m39.687 33.253a2.3511 1.9458 0 0 0-2.351 1.946 2.3511 1.9458 0 0 0 0.13692 0.65188 5.9202 5.4519 0 0 0-3.3299 3.1462 5.9202 5.4519 0 0 0-1.3452-0.14293 5.9202 5.4519 0 0 0-5.9204 5.4518 5.9202 5.4519 0 0 0 5.9204 5.4518 5.9202 5.4519 0 0 0 5.5447-3.5483 5.9202 5.4519 0 0 0 1.3448 0.14327 5.9202 5.4519 0 0 0 1.3448-0.14327 5.9202 5.4519 0 0 0 5.5447 3.5483 5.9202 5.4519 0 0 0 5.92-5.4518 5.9202 5.4519 0 0 0-5.92-5.4518 5.9202 5.4519 0 0 0-1.3425 0.14293 5.9202 5.4519 0 0 0-3.3325-3.1472 2.3511 1.9458 0 0 0 0.13659-0.65088 2.3511 1.9458 0 0 0-2.3514-1.946z" stroke-linejoin="round" stroke-width="2.6458"/>
  <ellipse cx="39.688" cy="35.199" rx="2.3511" ry="1.9458" stroke-linejoin="round" stroke-width="1.9387"/>
  <path d="m65.272 59.374c8.8744 1.6896 11.943 4.2431 11.943 6.9424 0 4.9164-16.801 8.9019-37.527 8.9019s-37.527-3.9855-37.527-8.9019c1.5e-6 -2.703 2.8777-5.2596 11.773-6.9489" stroke-linejoin="round" stroke-width="3.175"/>
 </g>
</svg>
